<?xml version="1.0" encoding="UTF-8" standalone="no"?>
<svg xmlns="http://www.w3.org/2000/svg" viewBox="0 0 100 100">
  <path fill="#00205B" d="M50 0C22.4 0 0 22.4 0 50s22.4 50 50 50 50-22.4 50-50S77.6 0 50 0z"/>
  <path fill="#FFFFFF" d="M80.5 50c0 16.8-13.7 30.5-30.5 30.5S19.5 66.8 19.5 50 33.2 19.5 50 19.5 80.5 33.2 80.5 50z"/>
  <path fill="#00205B" d="M77 50c0 14.9-12.1 27-27 27S23 64.9 23 50s12.1-27 27-27 27 12.1 27 27z"/>
  <path fill="#FFFFFF" d="M50 28.5l4.5 13.9h14.6l-11.8 8.6 4.5 13.9L50 56.3 38.2 64.9l4.5-13.9-11.8-8.6h14.6z"/>
</svg>
